<svg xmlns="http://www.w3.org/2000/svg" width="17" height="35" fill="none"><path fill="#B02E51" d="M14.128 34.383a2.174 2.174 0 0 1-.987-.235 2.313 2.313 0 0 1-.796-.664L1.303 18.914a2.523 2.523 0 0 1-.52-1.542c0-.562.184-1.107.52-1.542l11.43-14.57a2.251 2.251 0 0 1 1.55-.867 2.2 2.2 0 0 1 1.674.551c.467.413.76 1.005.816 1.647a2.535 2.535 0 0 1-.519 1.777L6.035 17.384 15.911 30.4c.28.357.458.79.512 1.25.055.461-.016.928-.203 1.348a2.386 2.386 0 0 1-.855 1.017c-.371.245-.8.373-1.237.368Z"/></svg>