<svg xmlns="http://www.w3.org/2000/svg" width="24" height="24" fill="none"><path fill="#827679" d="M18.443 24A18.449 18.449 0 0 1 5.41 18.58 18.523 18.523 0 0 1 0 5.52c0-1.464.58-2.868 1.614-3.903A5.503 5.503 0 0 1 5.509 0c.31-.002.618.026.922.084.294.044.583.116.862.216a1.198 1.198 0 0 1 .779.9l1.64 7.2a1.202 1.202 0 0 1-.31 1.104c-.156.168-.168.18-1.642.948a11.88 11.88 0 0 0 5.833 5.868c.778-1.488.79-1.5.958-1.656a1.197 1.197 0 0 1 1.102-.312l7.185 1.644a1.197 1.197 0 0 1 .863.78A5.21 5.21 0 0 1 24 18.564a5.525 5.525 0 0 1-1.66 3.866A5.504 5.504 0 0 1 18.443 24Z"/></svg>