<svg xmlns="http://www.w3.org/2000/svg" width="34" height="34" fill="none"><path fill="#A93B59" d="M26 33.667A25.7 25.7 0 0 1 .333 8 7.667 7.667 0 0 1 8 .334c.43-.004.86.035 1.283.116.41.06.811.161 1.2.3A1.666 1.666 0 0 1 11.567 2l2.283 10a1.667 1.667 0 0 1-.433 1.534c-.217.233-.234.25-2.284 1.316A16.517 16.517 0 0 0 19.25 23c1.083-2.066 1.1-2.083 1.333-2.3a1.666 1.666 0 0 1 1.534-.433l10 2.283a1.666 1.666 0 0 1 1.2 1.084c.14.395.246.802.316 1.216.067.42.1.843.1 1.267A7.667 7.667 0 0 1 26 33.667Z"/></svg>