<svg aria-hidden="true" style="position: absolute; width: 0; height: 0; overflow: hidden;" version="1.1" xmlns="http://www.w3.org/2000/svg" xmlns:xlink="http://www.w3.org/1999/xlink">
  <defs>
    <symbol id="burger-menu" viewBox="0 0 54 32">
      <path fill="none" stroke="#fafafa" style="stroke: var(--color1, #fafafa)" stroke-linejoin="miter" stroke-linecap="round" stroke-miterlimit="4" stroke-width="3.2" d="M1.6 1.6h51.2M1.6 16h51.2M1.6 30.4h51.2"></path>
    </symbol>
    <symbol id="menu-close-btn" viewBox="0 0 32 32">
      <path fill="#fafafa" style="fill: var(--color1, #fafafa)" d="M16 12.649l11.733-11.733 3.351 3.351-11.733 11.733 11.733 11.733-3.351 3.351-11.733-11.733-11.733 11.733-3.351-3.351 11.733-11.733-11.733-11.733 3.351-3.351 11.733 11.733z"></path>
    </symbol>
    <symbol id="heart" viewBox="0 0 37 32">
      <path fill="#a93b59" style="fill: var(--color3, #a93b59)" d="M32.327 3.625c-3.702-3.095-9.154-2.624-12.587 0.943l-1.279 1.346-1.346-1.348c-2.759-2.826-8.278-4.576-12.586-0.942-4.241 3.634-4.443 10.096-0.673 14l13.058 13.462c0.402 0.404 0.942 0.606 1.479 0.606 0.606 0 1.145-0.202 1.548-0.606l13.058-13.462c3.769-3.904 3.567-10.366-0.673-14zM31.452 16.144l-12.991 13.462-13.058-13.462c-2.556-2.692-3.095-7.74 0.539-10.837 3.702-3.163 8.010-0.874 9.625 0.741l2.895 2.961 2.827-2.961c1.548-1.615 5.922-3.904 9.625-0.74 3.634 3.095 3.097 8.144 0.539 10.836z"></path>
    </symbol>
    <symbol id="heart-red" viewBox="0 0 34 32">
      <path fill="#b71742" style="fill: var(--color1, #b71742)" d="M17.067 2.803c9.468-9.732 33.139 7.298 0 29.197-33.139-21.897-9.468-38.929 0-29.197z"></path>
    </symbol>
    <symbol id="check" viewBox="0 0 42 32">
      <path fill="#822740" style="fill: var(--color1, #822740)" d="M15.002 32c-0.738-0.002-1.402-0.317-1.867-0.818l-0.001-0.002-12.442-13.235c-0.43-0.457-0.694-1.075-0.694-1.754 0-1.415 1.147-2.563 2.563-2.563 0.736 0 1.4 0.311 1.868 0.808l0.001 0.001 10.547 11.238 21.53-23.552c0.473-0.586 1.191-0.957 1.996-0.957 1.414 0 2.56 1.146 2.56 2.56 0 0.716-0.294 1.363-0.767 1.827l-0 0-23.398 25.6c-0.463 0.512-1.127 0.835-1.867 0.845l-0.002 0h-0.026z"></path>
    </symbol>
    <symbol id="chevron-left" viewBox="0 0 16 32">
      <path fill="#b02e51" style="fill: var(--color3, #b02e51)" d="M12.917 31.436c-0.001 0-0.002 0-0.004 0-0.328 0-0.637-0.079-0.91-0.22l0.011 0.005c-0.291-0.15-0.534-0.354-0.724-0.602l-0.004-0.005-10.096-13.321c-0.297-0.384-0.475-0.873-0.475-1.403 0-0.003 0-0.005 0-0.008v0c0-0.514 0.168-1.012 0.475-1.41l10.45-13.321c0.337-0.435 0.838-0.73 1.408-0.792l0.009-0.001c0.057-0.006 0.122-0.009 0.189-0.009 0.516 0 0.987 0.195 1.343 0.514l-0.002-0.002c0.427 0.378 0.695 0.919 0.746 1.506 0.006 0.062 0.009 0.134 0.009 0.207 0 0.536-0.182 1.030-0.488 1.422l0.004-0.005-9.343 11.9 9.030 11.9c0.256 0.326 0.419 0.722 0.468 1.143s-0.015 0.848-0.186 1.232c-0.173 0.384-0.441 0.699-0.774 0.925l-0.008 0.005c-0.339 0.224-0.731 0.341-1.131 0.336z"></path>
    </symbol>
    <symbol id="chevron-right" viewBox="0 0 16 32">
      <path fill="#b02e51" style="fill: var(--color3, #b02e51)" d="M2.626 0.564c0.312 0 0.621 0.073 0.902 0.215s0.53 0.349 0.728 0.607l10.096 13.321c0.307 0.397 0.475 0.896 0.475 1.41s-0.168 1.012-0.475 1.41l-10.45 13.321c-0.337 0.436-0.838 0.73-1.408 0.792l-0.009 0.001c-0.057 0.006-0.122 0.009-0.189 0.009-0.516 0-0.987-0.195-1.343-0.514l0.002 0.002c-0.419-0.377-0.696-0.905-0.746-1.498l-0.001-0.008c-0.006-0.062-0.009-0.134-0.009-0.207 0-0.536 0.182-1.030 0.488-1.422l-0.004 0.005 9.343-11.9-9.030-11.9c-0.248-0.316-0.416-0.706-0.467-1.132l-0.001-0.011c-0.050-0.422 0.015-0.85 0.186-1.232 0.171-0.384 0.442-0.707 0.781-0.931s0.731-0.341 1.131-0.336z"></path>
    </symbol>
    <symbol id="telegram" viewBox="0 0 32 32">
      <path d="M32 2.667l-32 15 10.227 3.156 15.773-12.323-11.997 13.488 0.009 0.004-0.012-0.004v7.345l5.735-5.576 7.267 2.243 4.999-23.333z"></path>
    </symbol>
    <symbol id="instagram" viewBox="0 0 32 32">
      <path d="M16 0c-4.346 0-4.89 0.020-6.596 0.096-1.704 0.080-2.864 0.348-3.884 0.744-1.109 0.424-2.055 1.052-2.833 1.844l-0.001 0.001c-0.795 0.779-1.423 1.725-1.828 2.781l-0.018 0.053c-0.396 1.020-0.666 2.18-0.744 3.884-0.080 1.706-0.096 2.25-0.096 6.596s0.020 4.89 0.096 6.596c0.080 1.702 0.348 2.864 0.744 3.884 0.424 1.109 1.052 2.055 1.844 2.833l0.001 0.001c0.779 0.794 1.725 1.422 2.781 1.828l0.054 0.018c1.022 0.394 2.182 0.666 3.884 0.744 1.706 0.080 2.25 0.096 6.596 0.096s4.89-0.020 6.596-0.096c1.702-0.080 2.864-0.35 3.884-0.744 1.109-0.425 2.054-1.053 2.833-1.845l0.001-0.001c0.794-0.779 1.422-1.725 1.828-2.781l0.018-0.053c0.394-1.020 0.666-2.182 0.744-3.884 0.080-1.706 0.096-2.25 0.096-6.596s-0.020-4.89-0.096-6.596c-0.080-1.702-0.35-2.866-0.744-3.884-0.425-1.109-1.052-2.055-1.845-2.833l-0.001-0.001c-0.779-0.795-1.725-1.423-2.781-1.828l-0.053-0.018c-1.020-0.396-2.182-0.666-3.884-0.744-1.706-0.080-2.25-0.096-6.596-0.096zM16 2.88c4.27 0 4.78 0.022 6.466 0.094 1.56 0.074 2.407 0.332 2.97 0.554 0.75 0.29 1.28 0.636 1.842 1.194 0.518 0.504 0.926 1.119 1.184 1.808l0.011 0.034c0.218 0.562 0.48 1.41 0.55 2.97 0.076 1.688 0.094 2.194 0.094 6.466s-0.020 4.78-0.099 6.466c-0.081 1.56-0.341 2.407-0.561 2.97-0.299 0.75-0.639 1.28-1.199 1.842-0.558 0.559-1.098 0.906-1.84 1.195-0.56 0.218-1.42 0.48-2.98 0.55-1.698 0.076-2.198 0.094-6.478 0.094-4.282 0-4.782-0.020-6.478-0.099-1.562-0.081-2.422-0.341-2.982-0.561-0.758-0.299-1.28-0.639-1.838-1.199-0.562-0.558-0.92-1.098-1.2-1.84-0.22-0.56-0.479-1.42-0.56-2.98-0.060-1.68-0.082-2.198-0.082-6.458 0-4.262 0.022-4.782 0.082-6.482 0.081-1.56 0.34-2.418 0.56-2.978 0.28-0.76 0.638-1.28 1.2-1.842 0.558-0.558 1.080-0.918 1.838-1.197 0.56-0.222 1.402-0.482 2.962-0.562 1.7-0.060 2.2-0.080 6.478-0.080l0.060 0.040zM16 7.784c-4.54 0-8.216 3.68-8.216 8.216 0 4.54 3.68 8.216 8.216 8.216 4.54 0 8.216-3.68 8.216-8.216 0-4.54-3.68-8.216-8.216-8.216zM16 21.334c-0 0-0.001 0-0.002 0-2.945 0-5.332-2.387-5.332-5.332 0-0.001 0-0.001 0-0.002v0c0-0 0-0.001 0-0.002 0-2.945 2.387-5.332 5.332-5.332 0.001 0 0.001 0 0.002 0h-0c0 0 0.001 0 0.002 0 2.945 0 5.332 2.387 5.332 5.332 0 0.001 0 0.001 0 0.002v-0c0 0 0 0.001 0 0.002 0 2.945-2.387 5.332-5.332 5.332-0.001 0-0.001 0-0.002 0h0zM26.462 7.46c0 1.060-0.862 1.92-1.92 1.92-1.060-0.001-1.919-0.86-1.92-1.92v-0c0.001-1.060 0.86-1.918 1.92-1.918h0c1.060 0 1.919 0.859 1.92 1.918v0z"></path>
    </symbol>
    <symbol id="facebook" viewBox="0 0 20 32">
      <path d="M19.555 0.889c0-0.491-0.398-0.889-0.889-0.889v0h-4.445c-0.126-0.007-0.273-0.010-0.422-0.010-4.518 0-8.211 3.534-8.466 7.988l-0.001 0.023v4.8h-4.445c-0.491 0-0.889 0.398-0.889 0.889v4.623c0 0.491 0.398 0.889 0.889 0.889v0h4.445v11.911c0 0.491 0.398 0.889 0.889 0.889v0h5.333c0 0 0.001 0 0.001 0 0.491 0 0.889-0.398 0.889-0.889v0-11.911h4.657c0.004 0 0.009 0 0.013 0 0.409 0 0.753-0.276 0.857-0.652l0.001-0.006 1.28-4.622c0.019-0.069 0.030-0.148 0.030-0.23 0-0.489-0.395-0.886-0.883-0.89h-5.956v-4.8c0.094-0.902 0.85-1.6 1.769-1.6 0.003 0 0.006 0 0.008 0h4.444c0.491 0 0.889-0.398 0.889-0.889v0-4.623z"></path>
    </symbol>
    <symbol id="user" viewBox="0 0 26 32">
      <path fill="#827679" style="fill: var(--color7, #827679)" d="M13.091 13.868c3.749 0 6.788-3.039 6.788-6.788s-3.039-6.788-6.788-6.788v0c-3.749 0-6.788 3.039-6.788 6.788s3.039 6.788 6.788 6.788v0zM23.273 30.836c0.937 0 1.697-0.76 1.697-1.697v0c0-6.561-5.319-11.879-11.879-11.879s-11.879 5.319-11.879 11.879v0c0 0.937 0.76 1.697 1.697 1.697h20.364z"></path>
    </symbol>
    <symbol id="phone" viewBox="0 0 32 32">
      <path fill="#827679" style="fill: var(--color6, #827679)" d="M24.591 32c-6.79-0.011-12.932-2.771-17.377-7.226l-0-0c-4.45-4.46-7.205-10.614-7.213-17.412v-0.002c0-1.952 0.773-3.824 2.152-5.204 1.328-1.331 3.164-2.155 5.193-2.156h0c0.413-0.003 0.824 0.035 1.229 0.112 0.392 0.059 0.777 0.155 1.149 0.288 0.531 0.19 0.926 0.639 1.037 1.19l0.002 0.010 2.187 9.6c0.025 0.107 0.040 0.229 0.040 0.355 0 0.434-0.173 0.829-0.454 1.117l0-0c-0.208 0.224-0.224 0.24-2.189 1.264 1.604 3.47 4.319 6.2 7.681 7.783l0.097 0.041c1.037-1.984 1.053-2 1.277-2.208 0.288-0.282 0.682-0.456 1.116-0.456 0.125 0 0.247 0.014 0.364 0.042l-0.011-0.002 9.58 2.192c0.542 0.128 0.97 0.52 1.147 1.029l0.003 0.011c0.253 0.691 0.399 1.488 0.399 2.32 0 0.022-0 0.045-0 0.067l0-0.003c-0.031 2.022-0.872 3.841-2.212 5.153l-0.001 0.001c-1.322 1.295-3.134 2.094-5.133 2.094-0.022 0-0.044-0-0.067-0l0.003 0z"></path>
    </symbol>
  </defs>
</svg>